<?xml version="1.0" standalone="no"?>
<!DOCTYPE svg PUBLIC "-//W3C//DTD SVG 20010904//EN"
 "http://www.w3.org/TR/2001/REC-SVG-20010904/DTD/svg10.dtd">
<svg version="1.0" xmlns="http://www.w3.org/2000/svg"
 width="345.000000pt" height="345.000000pt" viewBox="0 0 345.000000 345.000000"
 preserveAspectRatio="xMidYMid meet">
<metadata>
Created by potrace 1.11, written by Peter Selinger 2001-2013
</metadata>
<g transform="translate(0.000000,345.000000) scale(0.100000,-0.100000)"
fill="#000000" stroke="none">
<path d="M2780 3055 c0 -9 9 -26 21 -38 33 -36 86 -119 112 -178 21 -49 27
-67 44 -134 3 -11 6 -54 7 -95 6 -188 -100 -391 -266 -512 -86 -63 -144 -92
-218 -112 -61 -15 -199 -19 -257 -6 -21 5 -49 11 -63 14 -134 26 -480 212
-591 319 -51 49 -67 31 -29 -32 86 -137 284 -347 392 -414 119 -74 209 -107
313 -114 l82 -6 -45 -81 c-257 -464 -248 -825 27 -1168 71 -89 117 -133 125
-120 3 5 -14 48 -38 95 -103 203 -123 438 -54 662 l21 70 17 -65 c53 -203 236
-397 410 -435 97 -21 220 2 333 62 60 32 54 28 132 89 84 67 109 94 96 107 -8
8 -25 -2 -59 -35 -206 -200 -443 -159 -620 106 -99 149 -115 231 -77 401 24
111 144 315 302 515 24 30 47 60 51 65 61 80 129 216 163 326 32 104 32 266 0
359 -45 129 -144 254 -265 336 -57 38 -66 41 -66 19z"/>
<path d="M798 2649 c-18 -10 -41 -31 -51 -48 -17 -29 -20 -30 -40 -16 -81 56
-163 -80 -91 -152 24 -24 43 -26 84 -9 11 4 20 -6 33 -36 20 -49 75 -93 127
-101 67 -11 137 43 161 123 7 22 18 40 25 40 24 0 21 25 -7 58 -16 18 -29 40
-29 50 0 23 -48 75 -87 96 -39 20 -80 18 -125 -5z m172 -115 c0 -23 -46 -40
-65 -24 -26 22 -17 35 25 36 28 1 40 -3 40 -12z"/>
<path d="M2451 2571 c-22 -22 -19 -47 7 -68 14 -11 14 -15 -1 -30 -8 -10 -25
-40 -36 -66 -12 -27 -28 -55 -36 -63 -46 -47 -38 -78 17 -67 21 4 28 2 28 -9
0 -25 68 -87 109 -99 86 -26 179 16 221 99 22 43 28 110 14 154 -12 41 -56 88
-98 107 -39 18 -58 19 -155 6 -42 -5 -56 2 -40 21 21 26 -5 40 -30 15z m114
-171 c4 -6 1 -18 -6 -26 -16 -19 -64 -14 -64 6 0 8 7 14 17 12 9 -1 19 2 23 8
8 13 22 13 30 0z"/>
<path d="M836 2261 c-3 -4 -4 -17 -2 -27 2 -10 6 -46 10 -79 30 -268 123 -459
264 -541 48 -29 111 -52 162 -61 51 -9 189 -10 230 -1 19 4 36 5 38 3 8 -8
-134 -93 -193 -116 -48 -18 -79 -23 -155 -23 -87 0 -101 3 -161 32 -36 18 -75
41 -87 52 -12 11 -28 20 -36 20 -13 0 -15 -22 -14 -147 1 -82 -1 -174 -5 -205
-27 -230 -145 -377 -339 -422 -65 -15 -212 -13 -325 4 -98 15 -97 14 -101 1
-4 -13 91 -57 204 -95 349 -116 613 -31 744 241 32 65 67 200 65 245 -4 66 34
-25 56 -132 33 -171 -14 -398 -116 -559 -14 -24 -24 -50 -20 -59 8 -20 47 16
129 123 92 119 147 214 185 320 57 162 60 357 8 526 l-14 45 31 14 c83 34 236
144 236 169 0 14 -10 14 -87 -3 -34 -7 -101 -14 -150 -14 l-88 -1 -51 78 -51
78 51 -19 c66 -26 80 -29 147 -33 127 -7 231 35 327 132 34 35 62 72 62 83 0
19 -2 19 -57 -6 -168 -74 -365 -74 -512 0 -116 59 -228 172 -320 323 -31 50
-55 70 -65 54z"/>
</g>
</svg>
